<svg width="282" height="68" viewBox="0 0 282 68" fill="none" xmlns="http://www.w3.org/2000/svg">
<path d="M201.94 2.49771C203.859 4.84534 203.881 7.41035 203.221 10.0851C201.93 15.3224 198.903 19.5684 195.492 23.5906C192.953 26.5835 190.153 29.3168 187.2 31.8984C186.646 32.3827 186.033 32.8288 185.575 33.6721C190.68 33.6721 195.66 33.6721 200.667 33.6721C200.428 28.1808 203.921 24.3674 207.021 20.468C210.51 16.0788 215.112 13.0067 220.109 10.532C221.081 10.0506 222.094 9.67782 223.176 9.47821C225.898 8.97567 227.586 10.6851 227.028 13.4218C226.496 16.0305 225.176 18.2583 223.586 20.3291C220.122 24.8412 216.111 28.8227 211.685 32.3906C211.178 32.7997 210.677 33.2171 209.967 33.8C214.519 33.8 218.815 33.8 222.985 33.8C223.901 26.8264 227.731 22.3 233.995 19.6715C235.285 19.1301 236.654 19.0561 238.031 19.1591C240.337 19.3316 241.772 21.1801 241.403 23.4506C241.055 25.5827 239.93 27.3117 238.556 28.8941C236.977 30.7123 235.166 32.2869 233.217 33.6815C233.362 34.0414 233.641 33.9587 233.848 33.9621C238.234 34.0346 242.622 34.0765 247.008 34.1724C248.029 34.1948 248.461 33.963 248.594 32.8009C248.859 30.4939 249.647 28.304 250.907 26.3241C253.591 22.1058 258.172 20.8492 263.518 22.8461C265.027 23.4101 266.475 24.11 267.769 25.0712C271.966 28.1893 276.147 31.3291 280.502 34.2279C281.179 34.6785 281.52 35.1981 280.625 35.7106C275.694 38.5356 271.515 42.4217 266.766 45.4975C264.523 46.9498 262.051 47.8467 259.368 48.1304C254.809 48.6127 250.989 45.9227 249.197 40.8397C248.73 39.5156 248.23 38.1689 248.24 36.7268C248.245 35.9869 247.887 35.7269 247.198 35.7279C242.671 35.7348 238.144 35.7315 233.505 35.7315C233.673 36.2724 234.13 36.3201 234.455 36.496C238.184 38.5155 241.67 40.8192 243.913 44.5734C244.775 46.0154 245.687 47.5891 244.632 49.1886C243.578 50.7872 241.779 50.8825 240.033 50.5579C232.175 49.0967 227.066 44.4116 224.462 36.9685C224.05 35.792 223.583 35.4552 222.416 35.4716C218.176 35.5314 213.934 35.4952 209.585 35.4952C209.713 36.1775 210.226 36.3754 210.607 36.667C214.279 39.4757 218.049 42.1726 221.278 45.5081C223.865 48.1801 226.122 51.0831 226.623 54.937C227.129 58.8282 224.764 60.6631 221.084 59.2775C216.751 57.6458 213.143 54.9331 210.04 51.5718C206.999 48.2771 204.141 44.8185 201.973 40.8552C201.096 39.2538 200.638 37.5478 200.763 35.4045C198.49 35.4045 196.251 35.4045 194.012 35.4045C191.751 35.4045 189.491 35.4045 187.145 35.4045C187.184 35.981 187.704 36.1959 188.049 36.505C192.934 40.8832 197.863 45.217 201.752 50.5662C202.978 52.2524 204.059 54.0278 204.832 55.9623C205.827 58.4536 206.437 61.0859 204.525 63.3377C202.644 65.5522 199.985 65.3232 197.418 64.7802C192.761 63.7954 189.305 60.9426 186.219 57.5142C180.803 51.4948 177.975 44.2923 176.631 36.4339C176.464 35.4557 176.133 35.1802 175.208 35.1889C171.716 35.2214 168.224 35.1967 164.731 35.1902C164.307 35.1894 163.88 35.1933 163.459 35.1503C162.949 35.0982 162.51 34.8796 162.54 34.2889C162.567 33.7549 163.009 33.6245 163.459 33.6146C164.356 33.595 165.253 33.5954 166.149 33.5951C170.105 33.5934 174.062 33.5943 178.191 33.5943C177.623 31.715 177.021 30.0152 176.822 28.1893C176.148 22.009 177.906 16.5366 181.416 11.5365C183.909 7.98662 186.834 4.87829 190.671 2.74401C192.886 1.5125 195.221 0.68939 197.804 0.745913C199.382 0.780449 200.765 1.25474 201.94 2.49771ZM256.962 34.1709C258.424 34.1737 259.886 34.1703 261.349 34.1822C262.003 34.1875 262.867 34.0922 262.89 34.9905C262.916 35.9784 261.996 35.7612 261.382 35.765C258.033 35.7856 254.683 35.8252 251.336 35.7522C250.054 35.7242 249.593 36.1616 249.84 37.3956C250.261 39.4939 250.899 41.5114 252.175 43.2615C253.48 45.052 255.168 46.1971 257.447 46.4516C260.567 46.8 263.294 45.7645 265.88 44.2094C269.001 42.3327 271.656 39.8161 274.644 37.7535C275.978 36.8331 277.308 35.9082 278.744 34.9129C278.333 34.6231 278.119 34.4424 277.879 34.308C275.196 32.8049 272.718 31.0362 270.424 28.9708C268.603 27.3302 266.567 25.9381 264.331 24.8884C262.024 23.8054 259.611 23.1833 257.062 23.7215C253.438 24.4865 249.853 29.4606 250.084 33.2175C250.132 33.9844 250.492 34.1741 251.16 34.1699C253 34.1583 254.839 34.1707 256.962 34.1709ZM188.547 19.6439C185.708 23.9636 183.094 28.3905 181.745 33.4648C182.688 33.7773 183.276 33.6071 183.797 32.9682C184.209 32.4629 184.727 32.0391 185.222 31.6077C190.397 27.1028 195.26 22.3109 198.875 16.4146C200.661 13.5009 202.116 10.4353 202.076 6.89708C202.042 3.97641 200.243 2.24822 197.311 2.35727C195 2.44323 192.838 3.15815 190.933 4.43822C183.585 9.37694 178.887 15.9948 178.222 25.0542C178.013 27.8928 178.567 30.5969 180.042 33.2529C183.689 24.131 187.589 17.6938 189.746 17.2595C189.813 18.2267 188.925 18.7053 188.547 19.6439ZM203.622 57.0443C202.36 53.7219 200.223 50.965 197.935 48.3138C193.945 43.6887 189.268 39.7778 184.751 35.701C183.992 35.0162 183.159 35.1557 182.197 35.443C184.164 39.7225 187.333 43.1066 189.827 47.0147C188.947 47.3111 188.641 46.8818 188.333 46.5637C185.463 43.6015 182.864 40.423 181.08 36.6796C180.419 35.2925 179.537 34.9247 178.107 35.3606C178.097 35.5517 178.056 35.7348 178.083 35.9068C179.348 43.8132 182.232 50.9769 187.749 56.9282C190.561 59.9613 193.761 62.3735 197.913 63.2541C202.91 64.3139 205.069 62.0763 203.622 57.0443ZM216.945 14.0819C211.559 17.2887 207.389 21.6949 204.188 27.0489C203.293 28.5456 202.382 30.0535 202.253 31.852C202.2 32.5908 202.117 33.4592 203.014 33.7937C203.939 34.1384 204.331 33.3914 204.785 32.7708C207.151 29.5346 209.574 26.3439 212.708 23.7855C213.144 23.4295 213.532 22.8498 214.551 23.3082C211.733 26.8608 208.459 29.9062 205.991 33.8592C207.359 33.7684 208.152 33.0723 208.972 32.4908C213.697 29.1418 217.727 25.046 221.425 20.6271C223.115 18.6062 224.631 16.4225 225.385 13.8295C225.623 13.0092 225.873 12.1243 225.214 11.416C224.533 10.6849 223.618 10.9443 222.812 11.1814C220.76 11.7849 218.913 12.8291 216.945 14.0819ZM223.694 58.0219C224.973 57.5856 225.451 56.6722 225.198 55.1577C224.711 52.2481 223.115 49.9235 221.212 47.7962C216.963 43.0464 211.631 39.5839 206.663 35.6909C206.444 35.5193 206.167 35.3885 205.837 35.7409C206.188 36.781 206.791 37.7273 207.411 38.6662C209.766 42.2281 212.758 45.2479 215.628 48.3733C215.968 48.7437 216.631 49.0192 216.289 49.7752C215.468 49.8628 214.982 49.273 214.464 48.8488C210.253 45.3999 206.842 41.2917 204.41 36.4058C204.103 35.7899 203.777 35.3189 203.035 35.5142C202.262 35.7179 202.246 36.3608 202.34 36.9949C202.512 38.1664 202.769 39.321 203.401 40.3432C207.31 46.664 211.952 52.3115 218.28 56.3865C219.848 57.3963 221.534 58.1017 223.694 58.0219ZM238.892 25.8122C239.028 25.5637 239.183 25.324 239.295 25.0651C239.758 23.9896 240.432 22.9052 239.68 21.7223C238.874 20.4562 237.545 20.6474 236.344 20.7657C231.086 21.2834 225.705 27.1443 224.689 32.2076C224.546 32.9203 224.81 33.5831 225.521 33.8243C226.269 34.0779 226.957 34.0045 227.432 33.1411C228.552 31.1064 230.03 29.3218 231.571 27.5959C231.91 27.2159 232.215 26.65 233.311 26.8765C231.773 29.2323 230.338 31.4315 228.856 33.7015C231.037 34.0098 236.185 29.9022 238.892 25.8122ZM229.325 38.3866C228.79 37.6704 228.215 36.9798 227.732 36.2297C227.375 35.6755 226.974 35.3959 226.333 35.6381C225.501 35.9522 225.887 36.5649 226.048 37.0622C227.208 40.6477 229.499 43.4165 232.463 45.6357C235.186 47.6744 238.138 49.1903 241.698 48.9461C243.373 48.8312 243.882 48.0282 243.18 46.5022C242.526 45.078 241.571 43.852 240.488 42.7207C237.462 39.5609 233.491 37.9088 229.681 35.9488C231.058 38.5728 233.662 40.2067 235.184 42.7238C232.834 41.8715 231.096 40.2719 229.325 38.3866Z" fill="#00A86B"/>
<path d="M80.0603 65.5023C78.1407 63.1547 78.1191 60.5897 78.7786 57.9149C80.0699 52.6776 83.0967 48.4316 86.5085 44.4094C89.0471 41.4165 91.8471 38.6832 94.8001 36.1016C95.3541 35.6173 95.9671 35.1712 96.4251 34.3279C91.3204 34.3279 86.3403 34.3279 81.3326 34.3279C81.5724 39.8192 78.0789 43.6326 74.979 47.532C71.4897 51.9212 66.8885 54.9933 61.891 57.468C60.9189 57.9494 59.906 58.3222 58.8244 58.5218C56.1015 59.0243 54.4144 57.3149 54.9722 54.5782C55.504 51.9695 56.8236 49.7417 58.4135 47.6709C61.8779 43.1588 65.8888 39.1773 70.3148 35.6094C70.8222 35.2003 71.3229 34.7829 72.033 34.2C67.4813 34.2 63.185 34.2 59.0155 34.2C58.0985 41.1736 54.2695 45.7 48.0049 48.3285C46.7146 48.8699 45.3459 48.9439 43.969 48.8409C41.6629 48.6684 40.2275 46.8199 40.5974 44.5494C40.9448 42.4173 42.0699 40.6883 43.4442 39.1059C45.0231 37.2877 46.8343 35.7131 48.7834 34.3185C48.6377 33.9586 48.3594 34.0413 48.1522 34.0379C43.7656 33.9654 39.3783 33.9235 34.9923 33.8276C33.9708 33.8052 33.5389 34.037 33.4056 35.1991C33.141 37.5061 32.3526 39.696 31.0928 41.6759C28.4088 45.8942 23.8277 47.1508 18.4821 45.1539C16.9725 44.5899 15.5246 43.89 14.2307 42.9288C10.0335 39.8107 5.85255 36.6709 1.49804 33.7721C0.82128 33.3215 0.480349 32.8019 1.37488 32.2894C6.30602 29.4644 10.4854 25.5783 15.2344 22.5025C17.4768 21.0502 19.9488 20.1533 22.6316 19.8696C27.1914 19.3873 31.0107 22.0773 32.8027 27.1603C33.2695 28.4844 33.7705 29.8311 33.7602 31.2732C33.755 32.0131 34.1128 32.2731 34.8024 32.2721C39.3291 32.2652 43.8558 32.2685 48.4953 32.2685C48.3274 31.7276 47.8702 31.6799 47.5454 31.504C43.8164 29.4845 40.3301 27.1808 38.0866 23.4266C37.2249 21.9846 36.3129 20.4109 37.3677 18.8114C38.4219 17.2128 40.2212 17.1175 41.9667 17.4421C49.8254 18.9033 54.9338 23.5884 57.5383 31.0315C57.95 32.208 58.4171 32.5448 59.5835 32.5284C63.8241 32.4686 68.0659 32.5048 72.4146 32.5048C72.2866 31.8225 71.774 31.6246 71.3928 31.333C67.7206 28.5243 63.9511 25.8274 60.7218 22.4919C58.135 19.8199 55.878 16.9169 55.3771 13.063C54.8715 9.17184 57.2363 7.33686 60.916 8.7225C65.2492 10.3542 68.8569 13.0669 71.9599 16.4282C75.0013 19.7229 77.8589 23.1815 80.0274 27.1448C80.9036 28.7462 81.362 30.4522 81.2373 32.5955C83.5098 32.5955 85.749 32.5955 87.9883 32.5955C90.2486 32.5955 92.509 32.5955 94.8551 32.5955C94.8158 32.019 94.2962 31.8041 93.9513 31.495C89.0661 27.1168 84.1375 22.783 80.2482 17.4338C79.0222 15.7476 77.9413 13.9722 77.1682 12.0377C76.1726 9.54644 75.5628 6.91409 77.4754 4.66228C79.3562 2.44785 82.0148 2.67676 84.5823 3.21977C89.2387 4.20457 92.6955 7.05742 95.7806 10.4858C101.197 16.5052 104.025 23.7077 105.369 31.5661C105.536 32.5443 105.867 32.8198 106.792 32.8111C110.284 32.7786 113.776 32.8033 117.269 32.8098C117.693 32.8106 118.12 32.8067 118.541 32.8497C119.051 32.9018 119.49 33.1204 119.46 33.7111C119.433 34.2451 118.991 34.3755 118.541 34.3854C117.644 34.405 116.747 34.4046 115.851 34.4049C111.895 34.4066 107.938 34.4057 103.809 34.4057C104.377 36.285 104.979 37.9848 105.178 39.8107C105.852 45.991 104.094 51.4634 100.584 56.4635C98.0914 60.0134 95.1663 63.1217 91.3288 65.256C89.1144 66.4875 86.7793 67.3106 84.1959 67.2541C82.6179 67.2196 81.235 66.7453 80.0603 65.5023ZM25.038 33.8291C23.5758 33.8263 22.1135 33.8297 20.6514 33.8178C19.9973 33.8125 19.1332 33.9078 19.1098 33.0095C19.0841 32.0216 20.0045 32.2388 20.618 32.235C23.9669 32.2144 27.317 32.1748 30.6643 32.2478C31.9461 32.2758 32.4069 31.8384 32.1596 30.6044C31.7389 28.5061 31.1014 26.4886 29.8254 24.7385C28.52 22.948 26.8317 21.8029 24.5533 21.5484C21.433 21.2 18.7058 22.2355 16.12 23.7906C12.9993 25.6673 10.3435 28.1839 7.35582 30.2465C6.02248 31.1669 4.69216 32.0918 3.25589 33.0871C3.66725 33.3769 3.88127 33.5576 4.12122 33.692C6.80408 35.1951 9.2822 36.9638 11.5755 39.0292C13.3971 40.6698 15.4326 42.0619 17.669 43.1116C19.9764 44.1946 22.3894 44.8167 24.9381 44.2785C28.5615 43.5135 32.1472 38.5394 31.9156 34.7825C31.8683 34.0156 31.5079 33.8259 30.8399 33.8301C29.0004 33.8417 27.1608 33.8293 25.038 33.8291ZM93.4528 48.3561C96.2921 44.0364 98.9065 39.6095 100.255 34.5352C99.3124 34.2227 98.7244 34.3929 98.2033 35.0318C97.7913 35.5371 97.2735 35.9609 96.7778 36.3923C91.6033 40.8972 86.74 45.6891 83.1252 51.5854C81.339 54.4991 79.8836 57.5647 79.9242 61.1029C79.9578 64.0236 81.757 65.7518 84.6889 65.6427C87.0003 65.5568 89.162 64.8418 91.0667 63.5618C98.4152 58.6231 103.113 52.0052 103.778 42.9458C103.987 40.1072 103.433 37.4031 101.958 34.7471C98.3114 43.869 94.4108 50.3062 92.254 50.7405C92.1867 49.7733 93.0747 49.2947 93.4528 48.3561ZM78.3779 10.9557C79.6403 14.2781 81.7774 17.035 84.0646 19.6862C88.0548 24.3113 92.7323 28.2222 97.2491 32.299C98.0078 32.9838 98.8413 32.8443 99.8025 32.557C97.8356 28.2775 94.6666 24.8934 92.1731 20.9853C93.0532 20.6889 93.3588 21.1182 93.667 21.4363C96.5368 24.3985 99.1361 27.577 100.92 31.3204C101.581 32.7075 102.463 33.0753 103.893 32.6394C103.903 32.4483 103.944 32.2652 103.917 32.0932C102.652 24.1868 99.7682 17.0231 94.2507 11.0718C91.4387 8.03866 88.2387 5.62648 84.087 4.74592C79.0903 3.68614 76.9305 5.9237 78.3779 10.9557ZM65.0547 53.9181C70.441 50.7113 74.6111 46.3051 77.8121 40.9511C78.707 39.4544 79.6178 37.9465 79.7468 36.148C79.7998 35.4092 79.8827 34.5408 78.9858 34.2063C78.0614 33.8616 77.6689 34.6086 77.2151 35.2292C74.8487 38.4654 72.4259 41.6561 69.2917 44.2145C68.8555 44.5705 68.4676 45.1502 67.4491 44.6918C70.2673 41.1392 73.5407 38.0938 76.0085 34.1408C74.6413 34.2316 73.8479 34.9277 73.0276 35.5092C68.303 38.8582 64.2727 42.954 60.5755 47.3729C58.8846 49.3938 57.3687 51.5775 56.6153 54.1705C56.3769 54.9908 56.1269 55.8757 56.7865 56.584C57.4673 57.3151 58.3818 57.0557 59.188 56.8186C61.2396 56.2151 63.0872 55.1709 65.0547 53.9181ZM58.3061 9.97814C57.0274 10.4144 56.5488 11.3278 56.8021 12.8423C57.2887 15.7519 58.8849 18.0765 60.788 20.2038C65.0373 24.9536 70.3687 28.4161 75.337 32.3091C75.5559 32.4807 75.8326 32.6115 76.1629 32.2591C75.8122 31.219 75.2093 30.2727 74.5887 29.3338C72.2344 25.7719 69.242 22.7521 66.3721 19.6267C66.0319 19.2563 65.3687 18.9808 65.7107 18.2248C66.5323 18.1372 67.0176 18.727 67.5357 19.1512C71.7473 22.6001 75.1577 26.7083 77.5902 31.5942C77.8969 32.2101 78.2229 32.6811 78.9645 32.4858C79.7375 32.2821 79.7538 31.6392 79.6604 31.0051C79.4878 29.8336 79.2314 28.679 78.5991 27.6568C74.6896 21.336 70.048 15.6885 63.7199 11.6135C62.1518 10.6037 60.4662 9.89834 58.3061 9.97814ZM43.1079 42.1878C42.9725 42.4363 42.8165 42.676 42.7051 42.9349C42.2425 44.0104 41.5677 45.0948 42.3202 46.2777C43.1255 47.5438 44.4549 47.3526 45.6564 47.2343C50.9139 46.7166 56.2952 40.8557 57.3113 35.7924C57.4543 35.0797 57.1901 34.4169 56.4791 34.1757C55.7313 33.9221 55.0425 33.9955 54.5676 34.8589C53.4483 36.8936 51.97 38.6782 50.4289 40.4041C50.0895 40.7841 49.7851 41.35 48.6889 41.1235C50.2267 38.7677 51.6622 36.5685 53.1441 34.2985C50.9625 33.9902 45.8146 38.0978 43.1079 42.1878ZM52.6748 29.6134C53.2103 30.3296 53.7855 31.0202 54.2683 31.7703C54.6251 32.3245 55.0257 32.6041 55.6672 32.3619C56.4988 32.0478 56.1129 31.4351 55.9521 30.9378C54.7924 27.3523 52.5008 24.5835 49.537 22.3643C46.8142 20.3256 43.8618 18.8097 40.3018 19.0539C38.627 19.1688 38.1182 19.9718 38.8197 21.4978C39.4745 22.922 40.4287 24.148 41.5121 25.2793C44.5381 28.4391 48.5094 30.0912 52.3195 32.0512C50.9424 29.4272 48.3385 27.7933 46.8163 25.2762C49.1658 26.1285 50.9041 27.7281 52.6748 29.6134Z" fill="#00A86B"/>
<circle cx="141" cy="34" r="8" fill="#00A86B"/>
</svg>
