<svg width="117" height="128" viewBox="0 0 117 128" fill="none" xmlns="http://www.w3.org/2000/svg">
<path d="M12.6739 56.1632C13.931 53.9368 14.3085 51.5189 14.7246 49.1162C15.4626 44.8555 15.2335 40.5548 15.1787 36.2665C15.1307 32.515 14.8956 28.7651 14.8849 25.0142C14.8761 21.9181 15.0478 18.8117 15.7832 15.7865C16.386 13.3065 17.5022 11.0258 18.9952 8.96184C22.4552 4.17869 27.1323 1.18327 32.9271 0.208449C36.3064 -0.360032 39.5999 0.122978 41.9953 3.05714C43.3657 4.73589 43.9662 6.58881 43.0895 8.68556C42.2473 10.6997 40.5427 11.5981 38.5072 11.9404C37.6142 12.0906 36.725 12.3105 35.8022 12.2782C32.5121 12.163 28.8363 15.1213 27.9494 18.1103C27.3799 20.0295 27.0169 21.9629 27.0424 23.9831C27.1298 30.9218 27.5862 37.8535 27.3932 44.7979C27.222 50.9623 25.9873 56.8753 23.2194 62.4058C21.9068 65.0287 20.279 67.4693 18.2921 69.6536C17.4443 70.5857 17.4224 70.6441 18.2095 71.5838C21.3891 75.3796 23.0336 79.8589 23.9637 84.626C24.7101 88.452 25.0708 92.3387 24.8385 96.2343C24.6658 99.1315 24.7673 102.042 24.4788 104.922C24.229 107.416 24.6411 109.859 24.6786 112.326C24.6917 113.185 25.1167 113.98 25.5495 114.706C26.0354 115.522 27.269 115.781 28.4071 115.431C30.1322 114.9 31.861 114.83 33.6157 115.315C37.5081 116.39 38.7609 120.644 36.1579 123.88C34.7018 125.691 32.7083 126.494 30.573 127.108C24.0262 128.988 18.641 126.287 15.1824 121.096C13.6248 118.758 13.0862 116.134 12.6836 113.476C11.9814 108.838 12.3255 104.179 12.5878 99.519C12.7617 96.4281 12.8059 93.3259 12.4112 90.2309C12.1096 87.8662 11.8574 85.4974 10.9659 83.266C10.6087 82.3722 10.1511 81.512 9.67299 80.6742C8.75216 79.0607 7.40008 77.9381 5.65605 77.2752C5.01995 77.0335 4.39896 76.7408 3.79699 76.4224C1.22989 75.0644 -0.267585 73.0101 0.0397618 70.0195C0.320711 67.2859 2.04106 65.6192 4.56527 64.7962C6.89721 64.0358 8.57003 62.4725 10.0184 60.6062C11.0684 59.2532 11.8769 57.7464 12.6739 56.1632Z" fill="#00A86B"/>
<path d="M103.515 56.1632C102.258 53.9368 101.88 51.5189 101.464 49.1162C100.726 44.8555 100.956 40.5548 101.01 36.2665C101.058 32.515 101.293 28.7651 101.304 25.0142C101.313 21.9181 101.141 18.8117 100.406 15.7865C99.803 13.3065 98.6867 11.0258 97.1937 8.96184C93.7338 4.17869 89.0567 1.18327 83.2619 0.208449C79.8826 -0.360032 76.5891 0.122978 74.1937 3.05714C72.8232 4.73589 72.2228 6.58881 73.0995 8.68556C73.9416 10.6997 75.6462 11.5981 77.6818 11.9404C78.5747 12.0906 79.464 12.3105 80.3868 12.2782C83.6769 12.163 87.3527 15.1213 88.2396 18.1103C88.8091 20.0295 89.172 21.9629 89.1466 23.9831C89.0591 30.9218 88.6028 37.8535 88.7957 44.7979C88.967 50.9623 90.2017 56.8753 92.9695 62.4058C94.2822 65.0287 95.91 67.4693 97.8968 69.6536C98.7447 70.5857 98.7665 70.6441 97.9794 71.5838C94.7999 75.3796 93.1553 79.8589 92.2253 84.626C91.4788 88.452 91.1182 92.3387 91.3505 96.2343C91.5232 99.1315 91.4217 102.042 91.7102 104.922C91.96 107.416 91.5478 109.859 91.5103 112.326C91.4973 113.185 91.0723 113.98 90.6395 114.706C90.1536 115.522 88.9199 115.781 87.7818 115.431C86.0568 114.9 84.328 114.83 82.5732 115.315C78.6809 116.39 77.428 120.644 80.0311 123.88C81.4872 125.691 83.4806 126.494 85.6159 127.108C92.1628 128.988 97.5479 126.287 101.007 121.096C102.564 118.758 103.103 116.134 103.505 113.476C104.208 108.838 103.863 104.179 103.601 99.519C103.427 96.4281 103.383 93.3259 103.778 90.2309C104.079 87.8662 104.332 85.4974 105.223 83.266C105.58 82.3722 106.038 81.512 106.516 80.6742C107.437 79.0607 108.789 77.9381 110.533 77.2752C111.169 77.0335 111.79 76.7408 112.392 76.4224C114.959 75.0644 116.457 73.0101 116.149 70.0195C115.868 67.2859 114.148 65.6192 111.624 64.7962C109.292 64.0358 107.619 62.4725 106.171 60.6062C105.121 59.2532 104.312 57.7464 103.515 56.1632Z" fill="#00A86B"/>
</svg>
