<svg fill="none" height="129" viewBox="0 0 447 129" width="447" xmlns="http://www.w3.org/2000/svg">
  <g fill="currentColor">
    <path
      d="m394.504 115.538c-1.224 3.382-4.682 4.976-7.215 4.616-2.79-.397-4.909-1.847-6.383-4.204-1.842-2.944-2.853-6.196-3.674-9.524-.479-1.943-1.055-3.862-1.545-5.802-.287-1.1388-.124-2.3707-.738-3.5099-.738.5133-1.122 1.2868-1.607 1.9542-5.224 7.1977-11.665 13.0307-19.759 16.9897-2.596 1.269-5.319 2.132-8.235 2.524-2.911.392-5.771.51-8.656-.051-1.823-.355-3.599-.886-5.215-1.774-3.252-1.786-6.239-3.904-8.519-6.88-2.831-3.695-4.816-7.772-6.176-12.1952-.656-2.1313-1.225-4.2912-1.538-6.4638-.393-2.7179-1.019-5.4232-1.026-8.1881-.009-3.1392-.242-6.2953.133-9.4127.31-2.5802.348-5.1737.667-7.7556.372-3.0177.835-6.0214 1.512-8.968 1.008-4.3807 2.277-8.6861 4.091-12.8556 1.85-4.2502 4.346-8.0218 7.498-11.373 2.931-3.1158 6.377-5.5987 10.508-7.0141 3.438-1.178 6.946-1.3632 10.55-.7715 3.558.5841 6.806 1.8645 10.002 3.4697 6.733 3.3822 12.835 7.581 18.132 12.8902.44.4401.844.5421 1.445.3064 3.464-1.3594 8.069.8399 9.362 4.2826.864 2.3024.604 4.624.56 6.9569-.019 1.0017-.197 2.0015-.2 3.0024-.019 5.8411-.234 11.6939.074 17.5194.207 3.9057.242 7.8358.757 11.7299.394 2.9793.572 5.9915 1.089 8.9482.606 3.4706 1.168 6.9549 2.28 10.3349.731 2.224 1.638 4.401 2.142 6.697.331 1.51.178 2.991-.316 4.521zm-61.474-60.4596c-.131.4169-.264.8333-.393 1.2507-.678 2.1886-1.002 4.4559-1.541 6.6737-.417 1.7157-.283 3.4795-.671 5.1995-.336 1.4926-.561 3.0344-.603 4.5608-.091 3.263-.077 6.5308-.02 9.7952.046 2.6356.365 5.2669 1.009 7.8166.432 1.7143.885 3.4423 1.584 5.1009 1.098 2.6049 2.323 5.1092 4.728 6.7902 1.72 1.201 3.683 1.757 5.798 1.31 1.081-.229 2.139-.612 3.171-1.015 2.915-1.137 5.346-2.9899 7.751-4.937 4.965-4.0214 8.38-9.1685 11.278-14.684 1.546-2.9404 2.84-6.0095 3.798-9.1978.638-2.1209 1.317-4.2278 1.883-6.372.464-1.7592.774-3.5451 1.146-5.317.24-1.1434.561-2.321-.26-3.5178-2.317-3.3782-4.977-6.4225-8.156-9.0523-4.758-3.9371-9.832-7.3469-15.756-9.3654-1.398-.4766-2.851-.5321-4.296.0309-2.325.9062-3.996 2.5849-5.401 4.5014-2.289 3.1225-3.927 6.5782-5.049 10.4284z" />
    <path
      d="m13.4852 56.681c1.2571-2.2263 1.6346-4.6443 2.0507-7.047.738-4.2607.5088-8.5614.4541-12.8497-.048-3.7515-.2831-7.5013-.2938-11.2523-.0088-3.096.1629-6.2025.8983-9.2277.6028-2.48 1.719-4.7606 3.212-6.82463 3.46-4.78315 8.1371-7.77858 13.9319-8.753401 3.3793-.568478 6.6727-.085472 9.0681 2.848691 1.3705 1.67874 1.9709 3.53167 1.0942 5.62842-.8421 2.01412-2.5467 2.91252-4.5822 3.25482-.893.1502-1.7823.3701-2.7051.3378-3.29-.1152-6.9658 2.8432-7.8527 5.8321-.5696 1.9192-.9325 3.8526-.907 5.8728.0874 6.9387.5437 13.8704.3508 20.8148-.1712 6.1644-1.406 12.0775-4.1738 17.6079-1.3126 2.623-2.9404 5.0635-4.9273 7.2478-.8478.9321-.8697.9906-.0826 1.9302 3.1796 3.7959 4.8241 8.2751 5.7542 13.0422.7464 3.826 1.107 7.7127.8748 11.6083-.1728 2.8972-.0713 5.8079-.3597 8.6879-.2498 2.494.1623 4.937.1998 7.404.0131.859.4381 1.654.8708 2.38.486.816 1.7196 1.074 2.8577.724 1.7251-.53 3.4539-.6 5.2086-.115 3.8924 1.075 5.1452 5.329 2.5422 8.565-1.4561 1.811-3.4496 2.614-5.5849 3.227-6.5468 1.88-11.932-.82-15.3906-6.011-1.5576-2.338-2.0962-4.962-2.4988-7.621-.7022-4.637-.3581-9.296-.0959-13.956.174-3.0911.2182-6.1933-.1765-9.2883-.3016-2.3647-.5538-4.7335-1.4454-6.9648-.3571-.8939-.8147-1.7541-1.2928-2.5918-.92086-1.6135-2.27294-2.7362-4.01697-3.399-.6361-.2418-1.25709-.5345-1.85907-.8529-2.56709-1.358-4.064567-3.4123-3.757218-6.4028.280948-2.7337 2.001298-4.4003 4.525508-5.2234 2.33194-.7603 4.00476-2.3237 5.45315-4.19 1.05-1.353 1.8585-2.8598 2.6555-4.443z" />
    <path
      d="m434.326 56.681c-1.257-2.2263-1.634-4.6443-2.051-7.047-.738-4.2607-.508-8.5614-.454-12.8497.048-3.7515.283-7.5013.294-11.2523.009-3.096-.163-6.2025-.898-9.2277-.603-2.48-1.719-4.7606-3.212-6.82463-3.46-4.78315-8.137-7.77858-13.932-8.753401-3.379-.568478-6.673-.085472-9.068 2.848691-1.371 1.67874-1.971 3.53167-1.094 5.62842.842 2.01412 2.546 2.91252 4.582 3.25482.893.1502 1.782.3701 2.705.3378 3.29-.1152 6.966 2.8432 7.853 5.8321.569 1.9192.932 3.8526.907 5.8728-.088 6.9387-.544 13.8704-.351 20.8148.171 6.1644 1.406 12.0775 4.174 17.6079 1.312 2.623 2.94 5.0635 4.927 7.2478.848.9321.87.9906.082 1.9302-3.179 3.7959-4.824 8.2751-5.754 13.0422-.746 3.826-1.107 7.7127-.874 11.6083.172 2.8972.071 5.8079.359 8.6879.25 2.494-.162 4.937-.2 7.404-.013.859-.438 1.654-.87 2.38-.486.816-1.72 1.074-2.858.724-1.725-.53-3.454-.6-5.209-.115-3.892 1.075-5.145 5.329-2.542 8.565 1.456 1.811 3.45 2.614 5.585 3.227 6.547 1.88 11.932-.82 15.391-6.011 1.557-2.338 2.096-4.962 2.498-7.621.703-4.637.359-9.296.096-13.956-.174-3.0911-.218-6.1933.177-9.2883.301-2.3647.554-4.7335 1.445-6.9648.357-.8939.815-1.7541 1.293-2.5918.921-1.6135 2.273-2.7362 4.017-3.399.636-.2418 1.257-.5345 1.859-.8529 2.567-1.358 4.065-3.4123 3.757-6.4028-.281-2.7337-2.001-4.4003-4.525-5.2234-2.332-.7603-4.005-2.3237-5.453-4.19-1.05-1.353-1.859-2.8598-2.656-4.443z" />
    <path
      d="m71.4727 119.229c-3.8195-1.863-6.5661-4.712-8.6603-8.265-.7878-1.336-1.4576-2.715-2.0141-4.154-.2628-.679-.6318-.948-1.4258-.707-1.9317.588-3.88 1.134-5.8455 1.597-2.013.473-3.8692-.009-5.3673-1.418-1.4843-1.396-2.1745-3.132-1.7649-5.214.3207-1.6299 1.1607-2.9296 2.4663-3.9239 2.8963-2.2059 5.521-4.7879 8.872-6.3686.2932-.1384.4821-.362.515-.7144.2731-2.9276.5669-5.8533.8257-8.7821.0484-.5481.083-1.0887.23-1.6235.6357-2.3125.9835-4.6847 1.4709-7.0279.305-1.4665.8565-2.8808 1.1993-4.3412.8292-3.5326 2.111-6.9247 3.3614-10.3106 3.4723-9.4021 8.1649-18.211 13.709-26.5577 4.1417-6.2352 8.9759-11.9104 14.6498-16.8356 2.9248-2.539 6.1129-4.67853 9.8028-6.01637 2.417-.87648 4.904-1.55346 7.456-1.34538 4.519.36838 8.075 2.49944 10.531 6.36375 2.779 4.3727 3.372 9.1859 3.07 14.2236-.235 3.9282-.986 7.7445-2.202 11.476-1.694 5.1977-4.05 10.0958-6.705 14.8739-2.882 5.1886-6.353 9.9745-10.115 14.529-3.608 4.3681-7.4604 8.5344-11.5124 12.5236-4.3741 4.3064-9.1516 8.137-13.8054 12.1141-1.7756 1.5175-3.7113 2.8522-5.6004 4.2345-.5947.4352-.7588.909-.5271 1.5907.3196.9401.5697 1.9051.8988 2.8421 1.1553 3.288 3.7514 4.705 6.9993 5.108 4.8651.604 9.3691-.788 13.7587-2.681 2.3768-1.024 4.6585-2.212 6.7045-3.818 1.819-1.427 3.933-2.2952 6.135-2.8883 2.437-.6563 4.642-.0478 6.244 1.9258 1.711 2.1085 1.846 4.4675.75 6.9605-1.429 3.25-3.956 5.459-6.766 7.467-4.055 2.897-8.565 4.804-13.2871 6.289-3.5564 1.119-7.2105 1.826-10.9214 1.855-4.5491.035-8.9606-.853-13.1298-2.981zm13.9538-50.528c.3132-.3652.6045-.752.9429-1.0926 5.5955-5.632 10.5242-11.7862 14.8166-18.4587 2.956-4.5932 5.315-9.4519 6.944-14.6519 1.061-3.3888 1.764-6.8449 1.414-10.4317-.196-2.0084-.372-2.0692-2.126-.9838-5.028 3.1108-9.0299 7.2921-12.5519 11.9521-4.2538 5.6281-7.9015 11.635-11.0303 17.9508-1.597 3.2236-2.9885 6.5358-4.3552 9.8631-1.1476 2.7939-2.0145 5.6708-2.8917 8.5456-.5579 1.8286-.9176 3.7168-1.3744 5.5762-.0768.3126-.4583.6562-.079.9255.4198.2981.6833-.1586.9455-.3907 3.17-2.8067 6.2101-5.7508 9.3455-8.8039z" />
    <path
      d="m201.225 73.1209c-5.758 4.0798-11.995 7.094-18.346 9.9259-4.186 1.8666-8.586 3.1064-12.852 4.7317-1.898.7234-3.942 1.1175-5.899 1.697-2.287.6768-4.623 1.0794-6.928 1.6324-1.373.3294-2.798.5192-4.221.6766-1.809.2001-3.605.4793-5.434.4474-.616-.0108-.701.4941-.765.9828-.184 1.4276.178 2.7723.566 4.1229 1.226 4.2634 4.136 6.5684 8.364 7.4354 3.469.71 6.935.831 10.462.471 1.576-.161 3.143-.402 4.716-.582 1.501-.172 2.981-.605 4.449-1.001 3.808-1.025 7.48-2.463 11.093-4.0161 3.414-1.4668 6.776-3.0935 9.855-5.2044 1.923-1.3187 3.776-2.6977 6.059-3.3749 2.639-.7825 5.19-.9224 7.502.8283 2.075 1.5706 2.798 3.7892 2.456 6.2984-.573 4.2137-3.123 7.0977-6.488 9.4107-3.184 2.188-6.487 4.175-9.951 5.864-4.348 2.122-8.807 4.004-13.474 5.308-2.827.79-5.696 1.416-8.582 1.981-2.609.511-5.253.623-7.851 1.015-3.254.49-6.435.159-9.597-.174-7.571-.796-14.247-3.658-19.284-9.636-2.668-3.167-4.571-6.855-5.685-10.802-.886-3.1402-1.132-6.4192-.78-9.7951.876-8.3955 4.239-15.7545 8.642-22.7467 3.186-5.0599 6.784-9.8155 10.92-14.124 6.03-6.2808 12.704-11.707 20.503-15.703 3.878-1.9866 7.778-3.8757 11.918-5.1961 2.324-.741 4.694-1.337 7.118-1.7692 2.274-.4053 4.566-.4539 6.828-.5822 1.997-.1133 4.075.1878 6.108.5576 2.2.4002 4.321.9354 6.307 1.9712 3.963 2.0667 6.823 5.1373 8.275 9.4123 1.043 3.0715 1.104 6.1852.187 9.3322-1.685 5.7859-4.855 10.6252-9.142 14.7702-2.182 2.1097-4.496 4.0617-7.049 5.8347zm-23.027-19.8465c-9.348 5.3263-17.137 12.3556-23.239 21.3332.451.2842.768.1611 1.072.0546 1.996-.6994 4.089-1.0355 6.095-1.7269 3.242-1.1177 6.574-1.9426 9.757-3.2741 3.081-1.2885 6.216-2.4589 9.223-3.91 3.255-1.571 6.403-3.3649 9.441-5.332 3.25-2.105 6.268-4.5021 8.607-7.652.753-1.0134 1.535-2.0104 2.028-3.1967.324-.778.044-1.2362-.711-1.4001-.936-.2036-1.887-.4718-2.833-.4749-3.334-.0109-6.578.6529-9.787 1.5161-3.353.902-6.422 2.4856-9.653 4.0628z" />
    <path
      d="m251.28 119.229c-4.023-1.863-6.916-4.712-9.121-8.265-.83-1.336-1.535-2.715-2.121-4.154-.277-.679-.666-.948-1.502-.707-2.034.588-4.086 1.134-6.156 1.597-2.12.473-4.075-.009-5.653-1.418-1.563-1.396-2.29-3.132-1.859-5.214.338-1.6299 1.223-2.9296 2.598-3.9239 3.05-2.2059 5.814-4.7879 9.343-6.3686.309-.1384.508-.362.543-.7144.288-2.9276.597-5.8533.869-8.7821.051-.5481.088-1.0887.243-1.6235.669-2.3125 1.035-4.6847 1.549-7.0279.321-1.4665.902-2.8808 1.263-4.3412.873-3.5326 2.223-6.9247 3.54-10.3106 3.657-9.4021 8.599-18.211 14.438-26.5577 4.362-6.2352 9.454-11.9104 15.429-16.8356 3.081-2.539 6.438-4.67853 10.324-6.01637 2.546-.87648 5.166-1.55346 7.853-1.34538 4.759.36838 8.505 2.49944 11.091 6.36375 2.927 4.3727 3.551 9.1859 3.233 14.2236-.247 3.9282-1.038 7.7445-2.319 11.476-1.784 5.1977-4.265 10.0958-7.061 14.8739-3.036 5.1886-6.691 9.9745-10.653 14.529-3.8 4.3681-7.857 8.5344-12.125 12.5236-4.607 4.3064-9.638 8.137-14.54 12.1141-1.87 1.5175-3.908 2.8522-5.898 4.2345-.626.4352-.799.909-.555 1.5907.337.9401.6 1.9051.947 2.8421 1.216 3.288 3.95 4.705 7.371 5.108 5.124.604 9.868-.788 14.491-2.681 2.503-1.024 4.906-2.212 7.061-3.818 1.916-1.427 4.142-2.2952 6.461-2.8883 2.567-.6563 4.889-.0478 6.576 1.9258 1.802 2.1085 1.945 4.4675.79 6.9605-1.505 3.25-4.166 5.459-7.126 7.467-4.27 2.897-9.02 4.804-13.994 6.289-3.745 1.119-7.594 1.826-11.502 1.855-4.791.035-9.437-.853-13.828-2.981zm14.696-50.528c.33-.3652.637-.752.993-1.0926 5.893-5.632 11.084-11.7862 15.605-18.4587 3.113-4.5932 5.598-9.4519 7.313-14.6519 1.117-3.3888 1.858-6.8449 1.489-10.4317-.206-2.0084-.391-2.0692-2.239-.9838-5.295 3.1108-9.51 7.2921-13.219 11.9521-4.48 5.6281-8.322 11.635-11.617 17.9508-1.682 3.2236-3.148 6.5358-4.587 9.8631-1.209 2.7939-2.122 5.6708-3.046 8.5456-.587 1.8286-.966 3.7168-1.447 5.5762-.081.3126-.483.6562-.084.9255.443.2981.72-.1586.996-.3907 3.339-2.8067 6.541-5.7508 9.843-8.8039z" />
  </g>
</svg>